<?xml version="1.0" encoding="utf-8"?>
<!-- Generator: Adobe Illustrator 27.1.1, SVG Export Plug-In . SVG Version: 6.00 Build 0)  -->
<svg version="1.1" id="Calque_2_00000141420777469595219870000009756084003353584786_"
	 xmlns="http://www.w3.org/2000/svg" xmlns:xlink="http://www.w3.org/1999/xlink" x="0px" y="0px" viewBox="0 0 101.5 101.5"
	 style="enable-background:new 0 0 101.5 101.5;" xml:space="preserve">
<style type="text/css">
	.st0{fill:none;stroke:#FFFFFF;stroke-width:1.5;stroke-miterlimit:10;}
	.st1{fill:#FFFFFF;stroke:#FFFFFF;stroke-width:1.5;stroke-miterlimit:10;}
	.st2{fill:#FCCC07;stroke:#FFFFFF;stroke-width:1.5;stroke-miterlimit:10;}
	.st3{fill:#FFCE05;stroke:#FFFFFF;stroke-width:1.5;stroke-miterlimit:10;}
</style>
<g id="Calque_1-2">
	<g>
		<path class="st0" d="M78.3,92.6c-0.7,1-1.5,2-2.6,2.7c-0.6,0.3-1.2,0.6-1.9,0.7c-1.4,0.2-2.6,0.9-3.7,1.6
			c-0.7,0.4-1.4,0.8-2.1,1.2c-1.2,0.7-2.6,1-4,1c-3.2,0-6.4,0.3-9.5,0.7c-3.4,0.4-6.7-0.1-10-0.2c-4.2-0.2-7.9-1.7-11.8-2.8
			c-0.1,0-0.1-0.1-0.2-0.1c-2.2-1.3-4.6-2.2-7.2-2.8c-2.6-0.6-4.7-2.2-6.2-4.4c-0.3-0.4-0.4-0.8-0.1-1.2c0.3-0.3,0.3-0.7,0.5-1.1
			c0.9-1.1,1.7-2.3,2.4-3.5c1.1-2,2.2-4.1,3.4-6c2.3-3.6,4.6-7.1,6.7-10.7c0.2-0.3,0.4-0.7,0.6-1c0-0.1,0.1-0.2,0.1-0.2
			c0.1-0.2,0.3-0.4,0.4-0.6c0.6-0.5,1.2-0.9,1.6-1.6c2.1-3.7,4.3-7.3,6.8-10.8c0.5-0.7,0.7-1.5,0.7-2.3c0-4.8,0.7-9.6,0.4-14.4
			c-0.2-3.7,0-7.4,0.1-11.2c0.2-6.4,0-12.8,0-19.2c0-0.3,0-0.7-0.1-1.1c-0.3-1.1-0.3-2.2-0.1-3.3c1.7-0.7,3.5-1.1,5.3-0.8
			c2.5,0.5,4.9,0.2,7.4-0.4c1.6-0.4,2.5,0.1,3.2,1.3c-0.5,1.5-0.2,3.1-0.2,4.6c0,10,0,19.9,0,29.9c0,0.4,0,0.9-0.3,1.1
			c-0.4,0.2-0.3,0.5-0.3,0.8c-0.1,2.9-0.1,5.8-0.2,8.7c-0.1,2.4-0.2,4.7,1.4,6.9c1.2,1.6,2,3.5,3.1,5.1c1,1.5,1.3,3.6,3.2,4.6
			c1.7,2.8,3.4,5.6,5.1,8.4c0.5,0.8,0.4,1.3-0.5,1.7c-0.7,0.3-0.9,0.8-0.5,1.5c0.1,0.2,0.2,0.5,0.3,0.7c1.4,2.9,3.3,5.6,4.9,8.4
			c1.1,2.1,2.4,4.1,3.6,6.1C78.3,91.3,78.8,91.9,78.3,92.6L78.3,92.6z"/>
		<path class="st0" d="M12.3,82.4c-0.6,0.2-1.1,0-1.6-0.3c-1.9-1.3-3.1-3.1-4-5.1c-2.4-5.8-4.1-11.8-5.2-18
			c-0.6-3.1-0.6-6.2-0.6-9.3c-0.1-4.1,0.6-8,1.6-12c0.5-1.9,0.3-3.8,0.7-5.7c0.4-2.1,1.5-3.9,2.8-5.5c3.9-5,8.5-9.4,13.1-13.8
			c1.6-1.6,3-3.3,4.8-4.8c1.7-1.4,3.6-2.4,5.9-2.5c0.6-0.1,1.3-0.2,1.9-0.3c0.2,0.8-0.2,1.6-0.2,2.4c0,3.2,0,6.5,0,9.7
			c0.1,8.1-0.2,16.2,0.2,24.3c0.1,1.3,0,2.6-0.1,3.9c0,1.5-0.2,2.9,0,4.3c0.2,1.2-0.1,2.2-0.9,3.1c-0.2,0.3-0.4,0.5-0.6,0.8
			c-4.1,6.6-8.5,12.9-12.5,19.6C15.8,76.3,13.8,79.2,12.3,82.4L12.3,82.4z"/>
		<path class="st0" d="M69.6,5.3c1.2-1.7,2.6-2,4.5-0.8c0.6,0.4,1.2,0.9,1.7,1.4c3.5,3.9,7.1,7.8,10.8,11.5
			c7.1,7.2,11.7,15.7,13.2,25.5c0.9,5.8,1.5,11.8,0.8,17.7c-0.3,2.2-0.9,4.3-1.9,6.2c-1.8,3.3-2.9,6.8-3.6,10.5
			c-0.4,1.9-1.7,2.9-3.6,3.4c-2.8-4.8-5.2-9.7-8.9-14.1c-0.2,0.2-0.3,0.5-0.6,0.7c-2,0.9-4.1,1.6-5.7,3.2c-0.2,0.2-0.5,0.4-0.8,0
			c-0.3-0.4,0.1-0.5,0.3-0.7c0.8-0.5,1.6-0.9,2.4-1.4c0.4-0.2,0.6-0.5,0.3-0.9c-1.7-2.6-3.1-5.4-4.7-8.1c-1.5-2.5-2.7-5.1-4.2-7.5
			c-0.7-1.2-0.9-2.5-0.5-3.8c0.1-0.5,0.2-1.1,0.2-1.6c-0.2-2-0.1-4-0.1-6c0.1-2.6,0.1-5.2,0.2-7.8c0.2-5.7,0.2-11.5,0.2-17.2
			c0-2-0.1-4,0-6C69.5,8,69.5,6.7,69.6,5.3L69.6,5.3z"/>
		<path class="st1" d="M12.3,82.4c1.5-3.2,3.6-6.1,5.4-9.2c4-6.6,8.4-13,12.5-19.6c0.2-0.3,0.4-0.5,0.6-0.8c0.7-0.9,1.1-1.9,0.9-3.1
			c-0.2-1.4-0.1-2.9,0-4.3c0-1.3,0.2-2.6,0.1-3.9c-0.5-8.1-0.2-16.2-0.2-24.3c0-3.2,0-6.5,0-9.7c0-0.8,0.4-1.6,0.2-2.4
			c0.2-0.4,0.5-0.6,1-0.8c2-0.6,4-1,5.9-1.9c1.2-0.6,2.6-0.5,4-0.3c-0.2,1.1-0.2,2.2,0.1,3.3c0.1,0.3,0.1,0.7,0.1,1.1
			c0,6.4,0.2,12.8,0,19.2c-0.1,3.7-0.3,7.5-0.1,11.2c0.3,4.8-0.4,9.6-0.4,14.4c0,0.8-0.2,1.6-0.7,2.3c-2.4,3.5-4.7,7.1-6.8,10.8
			c-0.4,0.7-1,1.2-1.6,1.6c-0.1-0.1-0.1-0.1-0.2-0.2c2.5-4,4.8-8.2,7.6-12.1c0.7-1,1-2,1-3.1c0.2-7.6,0.9-15.2,0.8-22.8
			c-0.1-8.1,0.3-16.3-0.2-24.4c0-0.7-0.3-1-1-1c-1.1,0-2,0.3-3,0.7c-0.7,0.3-1,0.7-0.9,1.4c0.2,2.6,0.2,5.2,0.1,7.9
			c-0.3,9.6,0.1,19.1,0,28.7c0,3.2,0.1,6.5,0.2,9.7c0,0.9-0.3,1.6-0.9,2.3c-0.6,0.7-1.2,1.5-1.6,2.3c-3,5.1-6.4,9.9-9.4,15
			c-3,5.1-6.1,10.2-9.4,15.1c-0.1,0.2-0.5,0.4,0,0.6c0.6,0.2,0.7,0.7,0.9,1.2c0.5,1,1.5,1.2,2.1,0.5c0.1,0.1,0.1,0.1,0.2,0.1
			c-0.2,0.3-0.1,0.8-0.5,1.1c-1.2-0.1-2.1-0.6-2.7-1.8c-0.3-0.7-1-1.3-1.6-1.9C13.7,84.5,12.8,83.6,12.3,82.4L12.3,82.4z"/>
		<path class="st1" d="M69.6,5.3c0,1.4,0,2.8-0.1,4.2c-0.1,2,0,4,0,6c0,5.7,0,11.5-0.2,17.2c-0.1,2.6-0.2,5.2-0.2,7.8
			c0,2-0.1,4,0.1,6c0.1,0.5,0,1.1-0.2,1.6c-0.3,1.3-0.2,2.7,0.5,3.8c1.6,2.4,2.8,5,4.2,7.5c1.6,2.7,3,5.5,4.7,8.1
			c0.3,0.5,0.2,0.7-0.3,0.9c-0.8,0.4-1.6,0.9-2.4,1.4c-0.2,0.2-0.6,0.2-0.3,0.7c0.2,0.4,0.6,0.2,0.8,0c1.6-1.6,3.7-2.2,5.7-3.2
			c0.3-0.2,0.4-0.4,0.6-0.7c3.6,4.4,6.1,9.3,8.9,14.1c-0.3,0.8-0.7,1.6-1.2,2.2c-2.5,3.3-5.4,6.3-8.8,8.9c-0.9,0.7-1.9,0.8-3,0.8
			c0.5-0.7,0-1.3-0.3-1.8c-1.2-2.1-2.5-4.1-3.6-6.1c-1.6-2.8-3.5-5.5-4.9-8.4c-0.1-0.2-0.2-0.5-0.3-0.7c-0.4-0.7-0.2-1.2,0.5-1.5
			c0.9-0.4,0.9-1,0.5-1.7c-1.7-2.8-3.4-5.6-5.1-8.4c-1.9-1-2.2-3-3.2-4.6c-1.1-1.7-2-3.5-3.1-5.1c-1.6-2.2-1.5-4.5-1.4-6.9
			c0.1-2.9,0.1-5.8,0.2-8.7c0-0.3-0.1-0.6,0.3-0.8c0.4-0.2,0.3-0.7,0.3-1.1c0-10,0-19.9,0-29.9c0-1.5-0.4-3.1,0.2-4.6
			c2-0.5,3.8,0.3,5.7,0.9c0.7,0.2,1.4,0.5,2.2,0.7C67.4,4,68.5,4.5,69.6,5.3L69.6,5.3z M59.8,2.9c-1.2,0-1.4,0.1-1.4,1.1
			c0,1,0.2,2.1,0.2,3.1c-0.1,10.2,0.2,20.5-0.1,30.7c-0.1,4,0,8-0.2,12c0,0.7,0.1,1.4,0.5,2c2,3.5,4,7,6,10.5
			c1.9,3.2,3.9,6.4,5.8,9.6c0.8,1.3,0.7,1.5-0.6,2.3c-0.5,0.3-0.6,0.6-0.3,1.1c0.5,1,1,2,1.6,3c2.5,4.2,5,8.3,7.3,12.5
			c0.5,0.9,1,0.8,1.7,0.5c0.3-0.2,0.6-0.4,0.9-0.6c2.2-1.7,4.1-3.6,6-5.7c1.1-1.2,2.1-2.4,2.9-3.8c0.3-0.5,0.2-0.9-0.2-1.4
			c-0.5-0.6-1.1-1.1-1.3-1.8c-1.3-3.7-3.9-6.8-6.1-10c-0.3-0.4-0.6-0.4-1-0.2c-1.7,0.9-3.6,1.5-5,2.9c-0.3,0.3-0.8,0.5-1.1,0.2
			c-0.5-0.4-1.1-0.8-1.4-1.4c-3.2-5.7-6.8-11.3-10.3-16.8c-0.2-0.3-0.4-0.7-0.5-1.2c-0.3-4.7-0.5-9.4-0.3-14.1
			c0.4-11.1-0.1-22.2,0.4-33.2c0-0.3,0.1-0.5-0.3-0.6C61.7,3.4,60.6,3,59.8,2.9L59.8,2.9z M64.2,52.3c-0.3-1.1-0.5-2-0.5-2.9
			C63.5,35,64.2,20.6,63.9,6.2c0-0.7,0-1.4-0.3-2.1c-0.2,4.3-0.2,8.5-0.2,12.8c0,5.6,0,11.3-0.1,16.9c-0.2,5.8-0.1,11.7,0.3,17.5
			C63.5,51.7,63.5,52,64.2,52.3L64.2,52.3z"/>
		<path class="st2" d="M31.8,67.8c-2.1,3.6-4.5,7.1-6.7,10.7c-1.2,1.9-2.3,4-3.4,6c-0.7,1.2-1.4,2.4-2.4,3.5
			c-0.1-0.1-0.1-0.1-0.2-0.1c1.2-1.7,2.2-3.5,3.2-5.3c2.8-5.1,6.2-9.9,9.3-14.9C31.7,67.7,31.8,67.8,31.8,67.8z"/>
		<path class="st2" d="M32.4,66.8c-0.2,0.3-0.4,0.7-0.6,1c-0.1-0.1-0.1-0.1-0.2-0.1c0.1-0.4,0.3-0.7,0.6-1
			C32.3,66.7,32.4,66.8,32.4,66.8L32.4,66.8z"/>
		<path class="st2" d="M33,66l-0.4,0.6c-0.1-0.1-0.1-0.1-0.2-0.1c0.1-0.2,0.3-0.4,0.4-0.6C32.9,65.9,32.9,66,33,66z"/>
		<path class="st2" d="M32.6,66.6c0,0.1-0.1,0.2-0.1,0.2c-0.1-0.1-0.1-0.1-0.2-0.2c0-0.1,0.1-0.2,0.1-0.2
			C32.4,66.5,32.5,66.5,32.6,66.6z"/>
		<path class="st3" d="M64.2,52.3c-0.7-0.3-0.7-0.6-0.7-0.9c-0.4-5.8-0.4-11.7-0.3-17.5c0.2-5.6,0.1-11.3,0.1-16.9
			c0-4.3,0-8.5,0.2-12.8c0.3,0.7,0.3,1.4,0.3,2.1c0.3,14.4-0.5,28.8-0.2,43.2C63.7,50.3,63.9,51.2,64.2,52.3L64.2,52.3z"/>
	</g>
</g>
</svg>
