<?xml version="1.0" encoding="utf-8"?>
<!-- Generator: Adobe Illustrator 27.1.1, SVG Export Plug-In . SVG Version: 6.00 Build 0)  -->
<svg version="1.1" id="Calque_2_00000041283004924265437290000016012909525820838558_"
	 xmlns="http://www.w3.org/2000/svg" xmlns:xlink="http://www.w3.org/1999/xlink" x="0px" y="0px" viewBox="0 0 145.1 121.9"
	 style="enable-background:new 0 0 145.1 121.9;" xml:space="preserve">
<style type="text/css">
	.st0{fill:none;stroke:#FFFFFF;stroke-width:2;stroke-miterlimit:10;}
	.st1{fill:#375B38;stroke:#FFFFFF;stroke-width:2;stroke-miterlimit:10;}
</style>
<g id="Calque_1-2">
	<g>
		<path class="st0" d="M136.9,98.1c-0.1,0.1-0.1,0.1-0.2,0.1c-0.1-0.1-0.3-0.1-0.3,0c-0.5,0.9-1.2,1.8-1.4,2.9
			c-0.1,0.1-0.1,0.2-0.1,0.3c-0.2,0-0.3,0.2-0.2,0.4c0,0.1-0.1,0.2-0.2,0.2c-0.2-0.1-0.3,0-0.2,0.2c-0.1,0.2-0.2,0.4-0.4,0.5
			c-0.7,0.6-1,1.4-1.3,2.3c0,0.1-0.1,0.2-0.2,0.2c-0.2-0.1-0.3,0-0.2,0.2c-0.3,1.2-1.5,2-2,3.1c-0.2,0.4-0.1,0.9-0.6,1.1
			c-0.5,0.2-0.6,0.6-0.8,1c-0.1,0.4-0.3,0.7-0.7,0.9c-0.2-0.1-0.3,0-0.2,0.2c0,0.2-0.1,0.4-0.3,0.5c-0.2,0-0.3,0-0.2,0.2
			c-0.2,0.3-0.4,0.5-0.6,0.7c-0.3,0.1-0.6,0.2-0.5,0.6c0,0.2-0.1,0.3-0.3,0.4c-0.2,0-0.2,0.1-0.3,0.2c-1.8,1.7-3.6,3.4-6,4.3
			c-1.6,0.6-3.2,1.4-4.9,1.4c-0.5,0-1.2,0.2-1.6,0c-0.8-0.5-1.4-0.2-2.2-0.2c-0.1,0-0.2,0.1-0.2,0c-1.1-0.6-2.4-0.6-3.3-1.4
			c-0.6-0.5-1.3-0.8-2-1.1c-0.2-0.1-0.5-0.2-0.7-0.3c-1.6-0.9-3.1-1.8-4.6-2.8c-0.4-0.2-0.9-0.3-1.2-0.5c-1.3-1-2.7-1.7-4.1-2.5
			c-3-1.8-6.3-3.4-9.4-5c-0.8-0.4-1.7-0.9-2.7-1c-0.1,0-0.4-0.1-0.4-0.2c-0.2-0.8-1-0.8-1.5-1.1c-0.9-0.5-1.8-1.3-2.7-1.8
			c-2.7-1.7-5.6-3-8.4-4.7c-1.6-0.9-3.4-1.7-5-2.7c-2.2-1.3-4.3-2.6-6.6-3.8c-0.4-0.2-0.9,0-1.4-0.4c-1.8-1.4-4-2.2-5.9-3.4
			c-1.2-0.7-2.5-1.5-3.8-1.9c-0.2-0.1-0.4-0.2-0.5-0.4c-0.1-0.4-0.4-0.5-0.7-0.7c-1.8-1-3.8-1.6-5.4-2.9c-0.2-0.2-0.6-0.2-0.5-0.7
			c0.1-0.3,0.6-0.5,0.8-0.5c1.3-0.1,2.5-0.1,3.8-0.4c2.6-0.5,5.1-1.3,7.6-2.2c0.7-0.2,1.3-0.8,2.1-0.9c0.7-0.1,1.3-0.4,1.7-0.9
			c0.3-0.4,0.7-0.7,1.1-1c0.7-0.6,1.5-1.1,2-1.8c0.3-0.4,0.7-0.6,1.2-0.8c0.1-0.1,0.3,0,0.4-0.2c1-1.1,2-2.1,3.2-3
			c0.3-0.2,0.7-0.4,1-0.8c0.6-1,1.7-1.5,2.3-2.5c0.4-0.7,1.2-1.1,1.4-2c0.2-0.6,0.8-1,0.6-1.7c0,0,0.1-0.2,0.1-0.2
			c0.8-0.3,0.8-1.3,1.3-1.9c0.3-0.4,0.4-1,0.8-1.3c0.5-0.3,0.9,0.4,1.6,0.4c-0.4-0.2-0.8-0.4-1.1-0.6c-0.2-0.1-0.4-0.3-0.3-0.5
			c0.6-0.5,0.4-1.4,0.8-2c0.5-1,1-1.9,1.3-3c0.2-0.6,0.2-1.3,0.7-1.7c0.5-0.4,0.6-0.9,0.7-1.4c0.1-0.2,0.1-0.5,0.2-0.7
			c0.4-1.5,0.9-2.9,1.1-4.5c0.1-0.5,0.1-0.5-0.4-0.6c-0.1,0-0.2-0.1-0.1-0.2c0-0.3,0-0.7,0-1c0.2-1.1,0.3-2.2-0.2-3.3
			c-0.1-0.2-0.1-0.2,0.1-0.3c0.5-0.3,0.4-0.8,0.4-1.2c0-0.6-0.2-1.2-0.2-1.8c0-1.3-0.4-2.5-0.3-3.7c0-1.1-0.3-2.3-0.5-3.4
			c-0.1-0.3-0.1-0.5-0.2-0.8c-0.5-1.5-0.9-3-1.2-4.6c-0.1-0.8-0.3-1.6-0.9-2.2c0.1-0.2,0.5,0.1,0.6-0.2c0.1,0,0.2,0.1,0.3,0.1
			c0,0.5,0.2,0.6,0.7,0.4c0.1,0,0.2,0.1,0.3,0.1c-0.1,0.2,0,0.3,0.2,0.4c0.4,0.2,0.8,0.4,1.1,0.6c4.5,2.4,9,4.7,13.5,7.1
			c5,2.6,9.9,5.2,14.9,7.8c0.3,0.2,0.6,0.6,1,0.5c2.4,1.2,4.8,2.4,7.1,3.7c1.3,0.8,2.7,1.5,4.1,2.3c0.3,0.2,0.5,0.3,0.7,0.6
			c-0.1,0.4,0.2,0.4,0.4,0.5c0.6,0.4,1.3,0.7,2,1.1c1,0.5,2,1,2.9,1.5c1.1,0.6,2.3,1,3.1,1.9c0.2,0.2,0.3,0.1,0.4-0.1
			c1.9,0.9,3.8,1.9,5.6,3c2.2,1.3,4.4,2.4,6.6,3.6c0.3,0.1,0.6,0.2,0.7,0.5c-0.1,0.7,0.5,0.5,0.8,0.8c1,1.2,2.5,2.2,3,3.8
			c-0.2,0.7-0.1,1.4,0.5,1.9c0.4,0.6,0.3,1.3,0.4,1.9c0.1,1.3,0.5,2.6,0.3,3.9c-0.4,0.4-0.3,0.8,0,1.2c0,0.1,0,0.1,0,0.2
			c-0.2,0.4-0.5,0.9-0.2,1.4c0.1,1.1-0.3,2.1-0.2,3.2c0.1,1.4-0.3,2.7-0.5,4.1c-0.3,0.2-0.4,0.5-0.2,0.8c0,0.4,0,0.9-0.2,1.3
			c-0.3,0.1-0.2,0.2-0.1,0.3c0,0.6,0,1.1-0.4,1.5c-0.3,0-0.3,0.1-0.1,0.3c0.1,0.1,0,0.2-0.1,0.3c-0.3,0-0.3,0.1-0.1,0.3
			c0,0.2,0,0.3-0.1,0.4c-0.4,0.1-0.4,0.2-0.1,0.5c-0.1,0.3-0.1,0.5-0.2,0.8c-0.3,0.1-0.3,0.2-0.1,0.3c-0.1,0.4-0.3,0.7-0.4,1
			c-0.3,0.1-0.2,0.2,0,0.3c-0.9,1.3-0.9,2.8-1.7,4.2c-0.3,0.2-0.5,0.4-0.2,0.7c0,0.3-0.1,0.5-0.3,0.7c-0.6,0.6-1,1.3-1.1,2.2
			c0,0.4-0.2,0.7-0.4,1c-0.3,0.1-0.2,0.2,0,0.3c0.1,0.2,0.1,0.5,0.1,0.7C137.2,97.6,137.1,97.9,136.9,98.1L136.9,98.1z M76.4,41.7
			c-0.1,0-0.2,0-0.2,0.1c0,0-0.1,0.2,0,0.2c0.1,0.1,0.2,0.1,0.2,0C76.4,41.9,76.4,41.8,76.4,41.7L76.4,41.7z M76.2,41.1
			c0,0,0.1,0.1,0.1,0.1c0,0,0.1,0,0.1-0.1c0,0-0.1-0.1-0.1-0.1S76.3,41.1,76.2,41.1z"/>
		<path class="st0" d="M50.8,2.4c-1.3-0.7-2.8-0.7-4.2-1c-1.7-0.4-3.4-0.3-5-0.4c-2-0.1-4,0.5-6,0.6c-1.8,0-3.5,0.6-5.2,1.2
			c-0.5,0.2-1,0.6-1.6,0.7c-1.9,0.3-3.5,1.1-5.1,2.1c-1,0.6-1.9,1.2-2.8,1.8c-1.4,0.9-2.9,1.9-4.2,2.9c-1.3,1-2.6,1.8-4.1,2.2
			c-0.5,0.1-0.9,0.4-0.8,1.1c0.1,0.7-0.3,1.1-1,1.4c-0.7,0.3-1.5,0.7-1.4,1.7c0,0.2-0.1,0.3-0.2,0.3c-0.2,0.1-0.3-0.2-0.3-0.2
			c-0.1-0.5-0.6-0.9-0.4-1.5c-0.2,0-0.3,0.2-0.5,0.1c-0.2-0.1-0.2-0.4-0.5-0.1c-0.2,0.2-0.1,0.4,0,0.7c0.2,0.4,0.3,0.8,0.6,1.2
			c0.6,0.6,0.3,1.6-0.1,2.3c-0.7,1.2-1.7,2.2-2.3,3.5c-0.7,1.3-1.4,2.6-1.9,4c-0.4,1.2-0.9,2.3-1.3,3.5c-0.6,1.8-0.9,3.6-1.1,5.4
			c-0.2,1.5-0.2,3.1-0.3,4.6c-0.1,1.4-0.1,2.8,0,4.2c0.1,2.4,0.2,4.8,0.8,7.2c0.1,0.5,0.3,0.9,0.3,1.4c0.1,1.5,0.7,2.8,1.1,4.1
			c0.4,1.3,1.1,2.5,1.6,3.7C6,63.1,7,65.4,8.8,67.3c0.6,0.6,1.2,1.3,1.7,1.9c1.9,2.4,4.2,4.4,6.8,6.1s5.3,3,8.2,4.1
			c0.7,0.2,1.3,0.5,2,0.7c2.9,0.9,5.8,1,8.8,1.1c0.8,0,1.5,0,2.3-0.2c0.6-0.1,1.3-0.4,1.9,0.2c0.7,0.8,1.6,1.1,2.4,1.7
			c1.7,1.1,3.5,1.9,5.2,3c2.7,1.7,5.6,3,8.4,4.5c0.5,0.3,1.1,0.4,1.4,1c0.1,0.2,0.4,0.3,0.6,0.3c0.5-0.1,0.8,0.1,1.1,0.3
			c2.6,1.4,5.3,2.8,7.7,4.4c2.2,1.5,4.8,2.6,7.1,3.9c2.6,1.5,5.3,2.9,7.9,4.4c0.4,0.2,0.8,0.4,0.9,0.8c0.1,0.3,0.4,0.5,0.8,0.4
			c0.4-0.1,0.8,0.1,1.2,0.3c4,2.2,8.2,4.1,12.1,6.6c1.2,0.8,2.6,1.4,3.9,2.1c1,0.5,1.9,1.2,2.8,1.7c1.7,0.9,3.4,1.8,5.1,2.7
			c2.3,1.2,4.7,1.7,7.2,1.5c2.5-0.2,4.8-1.2,6.9-2.6c1.5-1,2.9-2.2,4-3.6c-0.2,0-0.2,0.1-0.3,0.2c-1.8,1.7-3.6,3.4-6,4.3
			c-1.6,0.6-3.2,1.4-4.9,1.4c-0.5,0-1.2,0.2-1.6,0c-0.8-0.5-1.4-0.2-2.2-0.2c-0.1,0-0.2,0.1-0.2,0c-1.1-0.6-2.4-0.6-3.3-1.4
			c-0.6-0.5-1.3-0.8-2-1.1c-0.2-0.1-0.5-0.2-0.7-0.3c-1.6-0.9-3.1-1.8-4.6-2.8c-0.4-0.2-0.9-0.3-1.2-0.5c-1.3-1-2.7-1.7-4.1-2.5
			c-3-1.8-6.3-3.4-9.4-5c-0.8-0.4-1.7-0.9-2.7-1c-0.1,0-0.4-0.1-0.4-0.2c-0.2-0.8-1-0.8-1.5-1.1c-0.9-0.5-1.8-1.3-2.7-1.8
			c-2.7-1.7-5.6-3-8.4-4.7c-1.6-0.9-3.4-1.7-5-2.7c-2.2-1.3-4.3-2.6-6.6-3.8c-0.4-0.2-0.9,0-1.4-0.4c-1.8-1.4-4-2.2-5.9-3.4
			c-1.2-0.7-2.5-1.5-3.8-1.9c-0.2-0.1-0.4-0.2-0.5-0.4c-0.1-0.4-0.4-0.5-0.7-0.7c-1.8-1-3.8-1.6-5.4-2.9c-0.2-0.2-0.6-0.2-0.5-0.7
			c0.1-0.3,0.6-0.5,0.8-0.5c1.3-0.1,2.5-0.1,3.8-0.4c2.6-0.5,5.1-1.3,7.6-2.2c0.7-0.2,1.3-0.8,2.1-0.9c0.7-0.1,1.3-0.4,1.7-0.9
			c0.3-0.4,0.7-0.7,1.1-1c0.7-0.6,1.5-1.1,2-1.8c0.3-0.4,0.7-0.6,1.2-0.8c0.1-0.1,0.3,0,0.4-0.2c1-1.1,2-2.1,3.2-3
			c0.3-0.2,0.7-0.4,1-0.8c0.6-1,1.7-1.5,2.3-2.5c0.4-0.7,1.2-1.1,1.4-1.9c0.2-0.6,0.8-1,0.6-1.7c0,0,0.1-0.2,0.1-0.2
			c0.8-0.3,0.8-1.2,1.3-1.9c0.3-0.4,0.4-1,0.8-1.3c0.4-0.3,0.7,0.1,1.2,0.3c0,0,0-0.1,0-0.1c-0.3-0.1-0.5-0.3-0.8-0.4
			c-0.2-0.1-0.4-0.3-0.3-0.5c0.6-0.5,0.4-1.4,0.8-2c0.5-1,1-1.9,1.3-3c0.2-0.6,0.2-1.3,0.7-1.7c0.5-0.4,0.6-0.9,0.7-1.4
			c0.1-0.2,0.1-0.5,0.2-0.7c0.4-1.5,0.9-2.9,1.1-4.5c0.1-0.5,0.1-0.5-0.4-0.6c-0.1,0-0.2-0.1-0.1-0.2c0-0.3,0-0.7,0-1
			c0.2-1.1,0.3-2.2-0.2-3.3c-0.1-0.2-0.1-0.2,0.1-0.3c0.5-0.3,0.4-0.8,0.4-1.2c0-0.6-0.2-1.2-0.2-1.8c0-1.3-0.4-2.5-0.3-3.7
			c0-1.1-0.3-2.3-0.5-3.4c-0.1-0.3-0.1-0.5-0.2-0.8c-0.5-1.5-0.9-3-1.2-4.6c-0.1-0.8-0.3-1.6-0.9-2.2c0.1-0.2,0.5,0.1,0.6-0.2
			c-0.3-0.3-0.7-0.5-0.8-0.9c-0.4-1.3-1.2-2.4-1.9-3.5c-0.9-1.4-1.8-2.9-3-4.2c-1.8-2-4-3.7-6.2-5.2C61,7,59.3,5.8,57.5,4.8
			C55.5,3.7,53.5,2.2,50.8,2.4L50.8,2.4z"/>
		<path class="st1" d="M105.3,38.4c-0.4,0-0.7-0.4-1-0.5c-5-2.6-9.9-5.2-14.9-7.8c-4.5-2.4-9-4.7-13.5-7.1c-0.4-0.2-0.8-0.4-1.1-0.6
			c-0.2-0.1-0.3-0.2-0.2-0.4c0.5,0.1,0.9,0.5,1.4,0.8c9.4,5,18.9,9.9,28.3,14.9C104.7,37.7,105.1,37.9,105.3,38.4z"/>
		<path class="st1" d="M126.1,50c-0.1,0.2-0.3,0.3-0.4,0.1c-0.8-1-2.1-1.3-3.1-1.9c-1-0.5-1.9-1.1-2.9-1.5c-0.7-0.3-1.4-0.6-2-1.1
			c-0.2-0.1-0.5-0.1-0.4-0.5c2.7,1.4,5.4,2.8,8.1,4.2C125.5,49.4,125.8,49.7,126.1,50L126.1,50z"/>
		<path class="st1" d="M135,101.1c0.2-1.1,0.9-1.9,1.4-2.9c0.1-0.1,0.2-0.1,0.3,0c-0.5,0.7-0.8,1.5-1.3,2.2
			C135.3,100.6,135.3,100.9,135,101.1L135,101.1z"/>
		<path class="st1" d="M132.6,105c0.2-0.9,0.5-1.7,1.3-2.3C133.5,103.5,133.2,104.3,132.6,105z"/>
		<path class="st1" d="M137.8,95.3c0.1-0.9,0.5-1.6,1.1-2.2C138.7,93.9,138.2,94.6,137.8,95.3z"/>
		<path class="st1" d="M143.4,63.6c-0.6-0.5-0.7-1.1-0.5-1.9C143.3,62.2,143.2,62.9,143.4,63.6z"/>
		<path class="st1" d="M128.8,110.6c0.2-0.4,0.3-0.8,0.8-1C129.4,110.1,129.2,110.4,128.8,110.6z"/>
		<path class="st1" d="M139.8,57.9c-0.3-0.2-0.9-0.1-0.8-0.8C139.3,57.3,140,57.2,139.8,57.9z"/>
		<path class="st1" d="M143.9,72.1c-0.3-0.5-0.1-1,0.2-1.4C144.2,71.2,144,71.7,143.9,72.1z"/>
		<path class="st1" d="M144,70.5c-0.3-0.4-0.4-0.8,0-1.2C144.2,69.7,144.2,70.1,144,70.5z"/>
		<path class="st1" d="M136.9,98.1c0.1-0.3,0.3-0.6,0.4-0.8C137.6,97.8,137.4,98,136.9,98.1z"/>
		<path class="st1" d="M139.2,92.4c-0.3-0.4-0.1-0.6,0.2-0.7C139.5,92,139.4,92.2,139.2,92.4z"/>
		<path class="st1" d="M74.3,21.7c-0.4,0.3-0.7,0.2-0.7-0.4C73.9,21.4,74.1,21.5,74.3,21.7z"/>
		<path class="st1" d="M126.1,113.7c0-0.4,0.2-0.5,0.5-0.6C126.6,113.5,126.4,113.6,126.1,113.7z"/>
		<path class="st1" d="M143,80.2c-0.2-0.3-0.2-0.6,0.2-0.8C143.2,79.7,143.2,80,143,80.2z"/>
		<path class="st1" d="M141.8,85.1c-0.3-0.2-0.2-0.4,0.1-0.5C142.1,84.8,142,85,141.8,85.1z"/>
		<path class="st1" d="M134.6,101.8c-0.1-0.2,0-0.3,0.2-0.4C134.9,101.6,134.9,101.7,134.6,101.8z"/>
		<path class="st1" d="M142.2,83.6c-0.2-0.2-0.2-0.3,0.1-0.3C142.4,83.4,142.4,83.5,142.2,83.6z"/>
		<path class="st1" d="M127.3,112.4c-0.1-0.2,0-0.3,0.2-0.2C127.5,112.4,127.5,112.4,127.3,112.4z"/>
		<path class="st1" d="M127.9,111.7c-0.1-0.2,0-0.3,0.2-0.2C128.1,111.6,128,111.7,127.9,111.7z"/>
		<path class="st1" d="M141.6,86.2c-0.2-0.2-0.2-0.3,0.1-0.3C141.8,86,141.7,86.1,141.6,86.2z"/>
		<path class="st1" d="M142.7,81.8c-0.2-0.2-0.3-0.3,0.1-0.3C142.9,81.6,142.8,81.7,142.7,81.8z"/>
		<path class="st1" d="M141.1,87.5c-0.2-0.1-0.3-0.2,0-0.3C141.2,87.3,141.2,87.4,141.1,87.5z"/>
		<path class="st1" d="M132.2,105.5c-0.1-0.2,0-0.3,0.2-0.2C132.4,105.4,132.3,105.5,132.2,105.5z"/>
		<path class="st1" d="M134.2,102.2c-0.1-0.2,0-0.3,0.2-0.2C134.4,102.1,134.4,102.3,134.2,102.2z"/>
		<path class="st1" d="M137.3,96.6c-0.2-0.1-0.2-0.2,0-0.3C137.4,96.4,137.4,96.5,137.3,96.6z"/>
		<path class="st1" d="M142.1,84.2c-0.2-0.2-0.2-0.3,0.1-0.3C142.3,84,142.2,84.1,142.1,84.2z"/>
		<path class="st1" d="M76.4,41.7c0,0.1,0,0.2,0,0.2c-0.1,0.1-0.2,0.1-0.2,0c0,0,0-0.1,0-0.2C76.2,41.8,76.3,41.8,76.4,41.7
			L76.4,41.7z"/>
		<path class="st1" d="M76.2,41.1c0,0,0.1-0.1,0.1-0.1c0,0,0.1,0.1,0.1,0.1s-0.1,0.1-0.1,0.1C76.3,41.2,76.2,41.2,76.2,41.1z"/>
	</g>
</g>
</svg>
